<?xml version="1.0" encoding="UTF-8" standalone="no"?>
<!-- Created with Inkscape (http://www.inkscape.org/) -->

<svg
   width="210mm"
   height="297mm"
   viewBox="0 0 210 297"
   version="1.1"
   id="svg1"
   xml:space="preserve"
   inkscape:version="1.4 (86a8ad7, 2024-10-11)"
   sodipodi:docname="Logo para home.svg"
   xmlns:inkscape="http://www.inkscape.org/namespaces/inkscape"
   xmlns:sodipodi="http://sodipodi.sourceforge.net/DTD/sodipodi-0.dtd"
   xmlns="http://www.w3.org/2000/svg"
   xmlns:svg="http://www.w3.org/2000/svg"><sodipodi:namedview
     id="namedview1"
     pagecolor="#ffffff"
     bordercolor="#000000"
     borderopacity="0.25"
     inkscape:showpageshadow="2"
     inkscape:pageopacity="0.0"
     inkscape:pagecheckerboard="0"
     inkscape:deskcolor="#d1d1d1"
     inkscape:document-units="mm"
     inkscape:zoom="0.71891835"
     inkscape:cx="246.89869"
     inkscape:cy="515.35755"
     inkscape:window-width="1920"
     inkscape:window-height="1009"
     inkscape:window-x="-8"
     inkscape:window-y="-8"
     inkscape:window-maximized="1"
     inkscape:current-layer="g6" /><defs
     id="defs1" /><g
     inkscape:label="Camada 1"
     inkscape:groupmode="layer"
     id="layer1"><g
       id="g6"
       transform="matrix(1.5012882,0,0,1.5012882,-73.537608,-24.702603)"><g
         id="g7"
         transform="matrix(-1.2251534,0,0,1.2251534,319.86742,-112.59098)"><path
           style="fill:#2f4157;fill-opacity:1;stroke:#273648;stroke-width:0.175;stroke-dasharray:none;stroke-opacity:1"
           d="m 44.897599,213.13351 c 0,0 1.933813,3.17699 3.038852,-0.55251 l -8.840299,-36.7425 c 0,0 -0.759712,-1.31223 1.035973,-1.1741 l 9.185624,-0.27625 v -2.90073 h -10.56692 c 0,0 -3.315114,0.69065 -3.038854,3.86763 z"
           id="path4"
           inkscape:label="Parte_pequena_pasta"
           transform="matrix(-0.66609463,0,0,0.66609463,227.66233,48.526496)" /><path
           style="fill:#ffffff;fill-opacity:1;stroke:#a3c0d4;stroke-width:0.264675;stroke-dasharray:none;stroke-opacity:1"
           d="m 74.817943,66.360261 c 0,0 -7.80709,0.84577 -7.872148,8.392623 L 66.815676,202.59398 c 0,0 0.390355,7.41673 8.197445,9.04321 l 88.415289,-0.26024 c 0,0 8.13239,-0.91082 8.06733,-9.23838 V 93.4899 L 144.04081,66.165086 Z"
           id="path2"
           transform="matrix(-0.44041309,0,0,0.44041309,224.44787,114.15381)"
           inkscape:label="Arquivo_corpo" /><path
           style="fill:#f3f1f1;fill-opacity:1;stroke:#afc3ce;stroke-width:0.264583;stroke-opacity:1"
           d="m 144.12964,66.107341 -0.023,25.555064 c 0,0 0,2.047166 2.16218,2.024166 2.16217,-0.02299 25.32504,-0.04601 25.32504,-0.04601 z"
           id="path3"
           transform="matrix(-0.44041309,0,0,0.44041309,224.44787,114.15381)"
           inkscape:label="DobraArquivo" /><path
           style="fill:#577c8e;fill-opacity:1;stroke:#577c8e;stroke-width:2.165;stroke-linecap:round;stroke-dasharray:none;stroke-opacity:1"
           d="m 178.37376,158.57918 -12.96303,0.0488"
           id="path9"
           transform="translate(7.2617557e-6)"
           inkscape:label="LinhaPequena" /><path
           style="fill:#577c8e;fill-opacity:1;stroke:#577c8e;stroke-width:2.165;stroke-linecap:round;stroke-dasharray:none;stroke-opacity:1"
           d="m 187.29426,166.8682 -31.19582,-0.0325"
           id="path10"
           transform="translate(7.2617557e-6)"
           inkscape:label="LinhaMedia01" /><path
           style="fill:#577c8e;fill-opacity:1;stroke:#577c8e;stroke-width:2.165;stroke-linecap:round;stroke-dasharray:none;stroke-opacity:1"
           d="m 187.29426,174.27658 -31.19582,-0.0325"
           id="path11"
           transform="translate(7.2617557e-6)"
           inkscape:label="LinhaMedia2" /><path
           style="fill:#2f4157;fill-opacity:1;stroke:#273648;stroke-width:0.175;stroke-dasharray:none;stroke-opacity:1"
           d="m 53.334497,238.39068 c 0,0 1.312231,-2.00288 2.831657,-0.48346 l 1.105041,5.45613 c 0,0 0.324329,1.15371 1.243167,-2.14102 l 14.089226,-49.65761 c 0,0 0.897844,-2.5554 4.489218,-3.38417 h 40.264804 c 0,0 2.07194,-0.82879 2.83166,-3.03887 0,0 0.13811,-2.48633 -1.5885,-3.66042 -0.13812,-0.34533 -0.0691,-3.52231 -0.0691,-3.52231 0,0 2.62446,0.9669 3.79856,3.24604 0,0 0.69065,2.34821 3.17698,-3.03885 0,0 1.79569,-4.21296 5.04175,-4.21296 l 26.72807,-0.20719 c 0,0 2.90073,0.75971 2.41727,4.6964 l -19.32932,67.61035 c 0,0 -1.22091,3.71155 -4.29759,4.68827 l -76.819369,0.0977 c 0,0 -3.125518,-0.58603 -4.102241,-4.34643 z"
           id="path5"
           transform="matrix(-0.66609463,0,0,0.66609463,227.66233,48.526496)"
           inkscape:label="Pasta"
           sodipodi:nodetypes="cccccccccccccccccccc" /><path
           style="fill:#577c8e;fill-opacity:1;stroke:#4e6f7e;stroke-width:0.175;stroke-linecap:butt;stroke-dasharray:none;stroke-opacity:1"
           d="m 48.723318,225.10205 c 0,0 -2.82029,-5.15223 -4.151077,-5.12782 l -2.05112,-0.012 c 0,0 -2.099957,0.36627 -1.208687,1.45288 0,0 2.331921,2.29512 6.165566,10.32868 0,0 0.170921,0.70811 1.660439,0.9523 h 1.636014 c 0,0 1.172056,-0.34185 1.294156,-1.04997 0,0 2.637147,-10.13352 12.160209,-23.95417 0,0 1.48006,-1.04818 -1.032181,-1.56617 l -1.838853,-0.0173 c 0,0 -0.941007,-0.0776 -1.510791,0.98419 0,0 -5.991371,7.89928 -10.27339,18.84606 0,0 -0.181146,0.64027 -0.850285,-0.8367 z"
           id="path12"
           sodipodi:nodetypes="cccccccccccccc"
           inkscape:label="Certo"
           transform="matrix(-0.66609463,0,0,0.66609463,227.66233,48.526496)" /><path
           style="fill:#4e6f7e;fill-opacity:1;stroke:#476572;stroke-width:0.116567;stroke-dasharray:none;stroke-opacity:1"
           d="m 128.03999,191.15508 -0.49455,0.006 c 0,0 -2.01116,-0.49864 -2.33646,-2.35282 l -0.004,-0.15463 c 0,0 0.046,-1.42036 1.59862,-1.79414"
           id="path7"
           sodipodi:nodetypes="ccccc"
           inkscape:label="Volta_CSV" /><path
           style="fill:#577c8e;fill-opacity:1;stroke:#4e6f7e;stroke-width:0.116567;stroke-dasharray:none;stroke-opacity:1"
           d="m 170.8742,190.99056 c 0,0 2.13917,0.33352 2.35769,2.36919 v 15.57226 c 0,0 -0.39103,2.09318 -2.39219,2.27718 l -43.68054,-0.0115 c 0,0 -1.78264,-0.35653 -2.04716,-2.17367 l 0.0225,-20.11641 c 0,0 0.26023,1.51262 2.39092,2.2608 z"
           id="path6"
           inkscape:label="Atras_CSV" /><text
           xml:space="preserve"
           style="font-size:12.4181px;text-align:start;writing-mode:lr-tb;direction:ltr;text-anchor:start;fill:#f4efeb;fill-opacity:1;stroke:#f4efeb;stroke-width:1.03484;stroke-opacity:1"
           x="-166.45464"
           y="206.17642"
           id="text8"
           transform="scale(-1,1)"
           inkscape:label="CSV"><tspan
             sodipodi:role="line"
             id="tspan8"
             style="fill:#f4efeb;fill-opacity:1;stroke:#f4efeb;stroke-width:1.03484;stroke-opacity:1"
             x="-166.45464"
             y="206.17642">C S V</tspan></text><path
           style="fill:#ffffff;fill-opacity:1;stroke:#a3c0d4;stroke-width:0.116567;stroke-linecap:butt;stroke-dasharray:none;stroke-opacity:1"
           d="m 192.46138,207.02653 c 0,0 0,0.29877 -4.15976,0.32941"
           id="path14"
           inkscape:label="TampPasta00" /><rect
           style="fill:#ffffff;fill-opacity:1;stroke:#ffffff;stroke-width:0.116147;stroke-linecap:butt;stroke-dasharray:none;stroke-opacity:1"
           id="rect15"
           width="1.7623825"
           height="1.747061"
           x="-172.43376"
           y="221.79436"
           transform="matrix(-0.99590063,0.09045405,0.09045405,0.99590063,0,0)"
           inkscape:label="TampaPasta" /></g></g></g></svg>
